<svg width="108" height="129" viewBox="0 0 108 129" fill="none" xmlns="http://www.w3.org/2000/svg">
<path d="M83.4815 1.99803L16.7526 10.0258C11.4503 10.6637 7.66898 15.4793 8.30688 20.7816L20.0315 118.239C20.6694 123.541 25.4849 127.323 30.7873 126.685L97.5161 118.657C102.818 118.019 106.6 113.203 105.962 107.901L94.2373 10.4438C93.5994 5.14142 88.7838 1.36013 83.4815 1.99803Z" fill="#1B1D20"/>
<path d="M76.4646 2.60215L9.73578 10.63C4.43342 11.2679 0.65213 16.0834 1.29003 21.3858L13.0146 118.843C13.6525 124.145 18.4681 127.927 23.7704 127.289L90.4993 119.261C95.8016 118.623 99.5829 113.808 98.945 108.505L87.2204 11.0479C86.5825 5.74555 81.767 1.96425 76.4646 2.60215Z" fill="#FFD91A"/>
<path d="M76.6232 10.0814L11.3638 17.9325C8.0409 18.3322 5.67124 21.35 6.071 24.6729L10.7496 63.5625C11.1494 66.8854 14.1672 69.255 17.4901 68.8553L82.7495 61.0042C86.0724 60.6045 88.442 57.5867 88.0423 54.2638L83.3637 15.3742C82.9639 12.0513 79.9461 9.68165 76.6232 10.0814Z" fill="#F9EB4A"/>
<path d="M61.9301 98.35C64.0454 98.35 65.7601 96.6352 65.7601 94.52C65.7601 92.4047 64.0454 90.69 61.9301 90.69C59.8148 90.69 58.1001 92.4047 58.1001 94.52C58.1001 96.6352 59.8148 98.35 61.9301 98.35Z" fill="#1B1D20"/>
<path d="M74.1401 105.9C76.2553 105.9 77.9701 104.185 77.9701 102.07C77.9701 99.9547 76.2553 98.24 74.1401 98.24C72.0248 98.24 70.3101 99.9547 70.3101 102.07C70.3101 104.185 72.0248 105.9 74.1401 105.9Z" fill="#1B1D20"/>
<path d="M83.7499 95.72C85.8652 95.72 87.5799 94.0052 87.5799 91.89C87.5799 89.7747 85.8652 88.06 83.7499 88.06C81.6347 88.06 79.9199 89.7747 79.9199 91.89C79.9199 94.0052 81.6347 95.72 83.7499 95.72Z" fill="#1B1D20"/>
<path d="M71.9001 87.27C74.0153 87.27 75.7301 85.5553 75.7301 83.44C75.7301 81.3248 74.0153 79.61 71.9001 79.61C69.7848 79.61 68.0701 81.3248 68.0701 83.44C68.0701 85.5553 69.7848 87.27 71.9001 87.27Z" fill="#1B1D20"/>
<path d="M23.1699 42.31C26.329 42.31 28.8899 39.7491 28.8899 36.59C28.8899 33.4309 26.329 30.87 23.1699 30.87C20.0109 30.87 17.45 33.4309 17.45 36.59C17.45 39.7491 20.0109 42.31 23.1699 42.31Z" fill="#1B1D20"/>
<path d="M38.4399 49.93C41.104 51.8419 44.2911 52.8892 47.5699 52.93C51.5528 52.7544 55.3036 51.0067 57.9999 48.07" stroke="#1B1D20" stroke-width="2" stroke-miterlimit="10"/>
<path d="M41.2801 98.31L40.5801 92.49L32.7401 93.44L31.8201 85.83L26.0101 86.53L26.9301 94.14L19.3201 95.05L20.0201 100.86L27.6301 99.95L28.5701 107.78L34.3801 107.08L33.4401 99.25L41.2801 98.31Z" fill="#1B1D20"/>
<path d="M58.8101 30.64C59.1427 29.7184 59.6883 28.8883 60.4026 28.2175C61.1168 27.5468 61.9794 27.0542 62.9201 26.78C63.9422 26.5224 65.0148 26.5453 66.025 26.8463C67.0352 27.1472 67.9455 27.7151 68.6601 28.49" stroke="#1B1D20" stroke-width="2" stroke-miterlimit="10"/>
<path d="M24.3399 35.83C25.5274 35.83 26.4899 34.8674 26.4899 33.68C26.4899 32.4926 25.5274 31.53 24.3399 31.53C23.1525 31.53 22.1899 32.4926 22.1899 33.68C22.1899 34.8674 23.1525 35.83 24.3399 35.83Z" fill="white"/>
</svg>
